<?xml version="1.0" encoding="UTF-8"?>
<svg xmlns="http://www.w3.org/2000/svg" xmlns:xlink="http://www.w3.org/1999/xlink" viewBox="0 0 50 50" width="50px" height="50px">
<g id="surface36709334">
<path style=" stroke:none;fill-rule:nonzero;fill:rgb(37.64706%,37.64706%,37.64706%);fill-opacity:1;" d="M 8.03125 8.457031 C 7.769531 8.457031 7.511719 8.5625 7.320312 8.769531 C 3.394531 13.042969 1 18.742188 1 25 C 1 31.257812 3.394531 36.957031 7.320312 41.230469 C 7.699219 41.644531 8.355469 41.644531 8.753906 41.246094 L 10.882812 39.117188 C 11.265625 38.734375 11.261719 38.125 10.898438 37.722656 C 7.855469 34.351562 6 29.890625 6 25 C 6 20.109375 7.855469 15.648438 10.898438 12.277344 C 11.261719 11.875 11.265625 11.265625 10.882812 10.882812 L 8.753906 8.753906 C 8.554688 8.554688 8.292969 8.457031 8.03125 8.457031 Z M 41.96875 8.457031 C 41.707031 8.457031 41.445312 8.554688 41.246094 8.753906 L 39.113281 10.886719 C 38.730469 11.269531 38.734375 11.875 39.097656 12.277344 C 42.144531 15.644531 44 20.109375 44 25 C 44 29.890625 42.144531 34.351562 39.097656 37.722656 C 38.738281 38.125 38.734375 38.734375 39.117188 39.117188 L 41.246094 41.246094 C 41.644531 41.644531 42.300781 41.644531 42.679688 41.230469 C 46.605469 36.957031 49 31.257812 49 25 C 49 18.742188 46.605469 13.042969 42.679688 8.769531 C 42.488281 8.5625 42.230469 8.457031 41.96875 8.457031 Z M 35.625 14.839844 C 35.355469 14.824219 35.078125 14.921875 34.871094 15.128906 L 32.738281 17.261719 C 32.382812 17.617188 32.34375 18.195312 32.667969 18.585938 C 34.125 20.324219 35 22.5625 35 25 C 35 27.4375 34.125 29.675781 32.667969 31.410156 C 32.34375 31.800781 32.382812 32.378906 32.738281 32.738281 L 34.871094 34.871094 C 35.289062 35.289062 35.96875 35.25 36.351562 34.804688 C 38.625 32.175781 40 28.746094 40 25 C 40 21.253906 38.625 17.824219 36.351562 15.195312 C 36.160156 14.972656 35.894531 14.851562 35.625 14.835938 Z M 14.375 14.839844 C 14.105469 14.851562 13.839844 14.972656 13.644531 15.195312 C 11.375 17.824219 10 21.253906 10 25 C 10 28.746094 11.375 32.175781 13.644531 34.804688 C 14.03125 35.25 14.710938 35.289062 15.128906 34.871094 L 17.257812 32.738281 C 17.617188 32.382812 17.65625 31.804688 17.332031 31.414062 C 15.875 29.675781 15 27.4375 15 25 C 15 22.5625 15.875 20.324219 17.332031 18.589844 C 17.65625 18.199219 17.617188 17.621094 17.257812 17.261719 L 15.128906 15.128906 C 14.921875 14.921875 14.644531 14.828125 14.375 14.839844 Z M 25 19 C 21.6875 19 19 21.6875 19 25 C 19 28.3125 21.6875 31 25 31 C 28.3125 31 31 28.3125 31 25 C 31 21.6875 28.3125 19 25 19 Z M 25 19 "/>
</g>
</svg>
